<?xml version="1.0" encoding="UTF-8"?>
<!DOCTYPE svg PUBLIC "-//W3C//DTD SVG 1.1//EN" "http://www.w3.org/Graphics/SVG/1.1/DTD/svg11.dtd">
<svg xmlns="http://www.w3.org/2000/svg" xml:space="preserve" width="898" height="146" version="1.1" style="shape-rendering:geometricPrecision; text-rendering:geometricPrecision; image-rendering:optimizeQuality; fill-rule:evenodd; clip-rule:evenodd"
viewBox="141 108 898 146"
 xmlns:xlink="http://www.w3.org/1999/xlink">
 <defs>
  <style type="text/css">
   <![CDATA[
    .fil0 {fill:#FF9900;fill-rule:nonzero}
    .fil1 {fill:white;fill-rule:nonzero}
   ]]>
  </style>
 </defs>
 <g id="Слой_x0020_1">
  <metadata id="CorelCorpID_0Corel-Layer"/>
  <path class="fil0" d="M208 252l0 -34 -62 0 0 -16 65 -93 14 0 0 93 19 0 0 16 -19 0 0 34 -18 0zm0 -50l0 -64 -45 64 45 0z"/>
  <path id="1" class="fil0" d="M368 108l19 0 0 83c0,14 -2,26 -5,34 -3,8 -9,15 -18,21 -8,5 -20,8 -33,8 -13,0 -24,-2 -33,-7 -9,-5 -15,-11 -18,-20 -4,-9 -5,-21 -5,-36l0 -83 19 0 0 83c0,12 1,22 3,28 2,6 6,10 12,14 6,3 12,5 21,5 14,0 24,-3 30,-9 6,-6 9,-18 9,-36l0 -83z"/>
  <path id="2" class="fil1" d="M425 252l0 -143 46 0c18,0 29,1 34,2 8,2 15,7 21,14 6,7 8,16 8,28 0,9 -2,16 -5,22 -3,6 -7,11 -12,14 -5,3 -10,6 -15,7 -7,1 -17,2 -30,2l-19 0 0 54 -29 0zm29 -119l0 41 16 0c11,0 19,-1 23,-2 4,-2 7,-4 9,-7 2,-3 3,-7 3,-11 0,-5 -2,-10 -5,-13 -3,-3 -7,-6 -12,-6 -3,-1 -10,-1 -21,-1l-14 0z"/>
  <path id="3" class="fil1" d="M565 252l0 -143 61 0c15,0 26,1 33,4 7,3 12,7 17,14 4,7 6,14 6,23 0,11 -3,20 -9,27 -6,7 -16,11 -28,13 6,4 11,8 15,12 4,4 10,12 16,23l17 28 -35 0 -21 -31c-7,-11 -13,-18 -15,-21 -3,-3 -6,-5 -9,-6 -3,-1 -8,-2 -15,-2l-6 0 0 60 -29 0zm29 -83l21 0c14,0 23,-1 26,-2 3,-1 6,-3 8,-6 2,-3 3,-6 3,-11 0,-5 -1,-9 -4,-12 -3,-3 -6,-5 -11,-6 -2,0 -9,-1 -21,-1l-23 0 0 36z"/>
  <polygon id="4" class="fil1" points="715,252 715,108 744,108 744,252 "/>
  <polygon id="5" class="fil1" points="779,252 779,108 807,108 866,204 866,108 893,108 893,252 864,252 806,158 806,252 "/>
  <polygon id="6" class="fil1" points="963,252 963,133 920,133 920,108 1034,108 1034,133 992,133 992,252 "/>
 </g>
</svg>
