<?xml version="1.0" encoding="UTF-8"?>
<!DOCTYPE svg PUBLIC "-//W3C//DTD SVG 1.1//EN" "http://www.w3.org/Graphics/SVG/1.1/DTD/svg11.dtd">
<!-- Creator: CorelDRAW 2021 (64-Bit) -->
<svg xmlns="http://www.w3.org/2000/svg" xml:space="preserve" width="189px" height="71px" version="1.1" style="shape-rendering:geometricPrecision; text-rendering:geometricPrecision; image-rendering:optimizeQuality; fill-rule:evenodd; clip-rule:evenodd"
viewBox="0 0 1890 710"
 xmlns:xlink="http://www.w3.org/1999/xlink"
 xmlns:xodm="http://www.corel.com/coreldraw/odm/2003">
 <defs>
  <style type="text/css">
   <![CDATA[
    .fil2 {fill:none;fill-rule:nonzero}
    .fil0 {fill:#211917}
    .fil3 {fill:#AB261E;fill-rule:nonzero}
    .fil1 {fill:#FEFEFE;fill-rule:nonzero}
   ]]>
  </style>
 </defs>
 <g id="Слой_x0020_1">
  <metadata id="CorelCorpID_0Corel-Layer"/>
  <polygon class="fil0" points="0,710 1890,710 1890,0 0,0 "/>
  <path class="fil1" d="M1833.03 357.26c-8.41,-8.22 -20.14,-12.35 -35.17,-12.35l-94.3 0 0 35.47 71.45 0c7.89,0 13.26,1.87 16.12,5.62 1.8,2.35 2.7,5.47 2.7,9.43l0 2.15 -62.33 0c-11.46,0 -19.89,2.04 -25.25,6.16 -8.25,6.27 -12.37,18.26 -12.37,35.99 0,19.71 3.86,33.05 11.57,40.03 5.55,5.02 14.24,7.53 26.05,7.53l83.8 0c11.28,0 19.31,-2.47 24.05,-7.38 4.75,-4.93 7.12,-12.6 7.12,-22.98l0 -59.64c0,-17.91 -4.47,-31.23 -13.44,-40.03zm-39.2 83.02l0 0c0,3.22 -0.87,5.49 -2.55,6.85 -1.72,1.34 -4.36,2.01 -7.94,2.01l-27.4 0c-3.05,0 -5.39,-0.72 -6.98,-2.15 -1.61,-1.44 -2.42,-3.59 -2.42,-6.46 0,-3.2 0.81,-5.55 2.42,-6.97 1.59,-1.43 4.11,-2.15 7.52,-2.15l37.35 0 0 8.87z"/>
  <path class="fil1" d="M1697.08 487.29l-59.11 0 -41.64 -57.23c-4.65,-6.44 -6.99,-11.74 -6.99,-15.82 0,-4.32 2.87,-10.59 8.61,-18.81l34.93 -50.52 58.01 0 -42.18 54.26c-5.18,6.63 -7.79,11.55 -7.79,14.78 0,3.23 2.07,7.35 6.19,12.35l49.97 60.99z"/>
  <polygon class="fil1" points="1583.98,487.29 1531.34,487.29 1531.34,344.91 1583.98,344.91 "/>
  <path class="fil1" d="M1515.22 487.29l-52.66 0 2.69 -73.89c0.19,-2.87 -0.54,-4.28 -2.15,-4.28 -0.88,0 -2.51,1.41 -4.82,4.28l-50.51 63.13c-4.11,5.21 -8.24,8.6 -12.35,10.23 -3.23,1.41 -7.98,2.12 -14.24,2.12 -20.06,0 -30.09,-8.94 -30.09,-26.86l0 -117.11 52.66 0 -2.69 73.86c-0.18,2.7 0.63,4.05 2.42,4.05 1.07,0 2.68,-1.35 4.82,-4.05l51.57 -64.73c5.74,-7.16 13.97,-10.73 24.72,-10.73 20.42,0 30.63,9.47 30.63,28.48l0 115.5z"/>
  <polygon class="fil1" points="1334.97,487.29 1282.33,487.29 1282.33,433.02 1235.59,433.02 1235.59,487.29 1182.92,487.29 1182.92,344.91 1235.59,344.91 1235.59,394.86 1282.33,394.86 1282.33,344.91 1334.97,344.91 "/>
  <path class="fil1" d="M1153.44 357.26c-8.43,-8.22 -20.15,-12.35 -35.2,-12.35l-94.28 0 0 35.47 71.45 0c7.88,0 13.25,1.87 16.12,5.62 1.78,2.35 2.68,5.47 2.68,9.43l0 2.15 -62.32 0c-11.45,0 -19.87,2.04 -25.25,6.16 -8.22,6.27 -12.34,18.26 -12.34,35.99 0,19.71 3.83,33.05 11.54,40.03 5.54,5.02 14.24,7.53 26.05,7.53l83.82 0c11.28,0 19.29,-2.47 24.05,-7.38 4.72,-4.93 7.11,-12.6 7.11,-22.98l0 -59.64c0,-17.91 -4.49,-31.23 -13.43,-40.03zm-39.23 83.02l0 0c0,3.22 -0.84,5.49 -2.54,6.85 -1.71,1.34 -4.34,2.01 -7.93,2.01l-27.4 0c-3.04,0 -5.36,-0.72 -6.98,-2.15 -1.62,-1.44 -2.42,-3.59 -2.42,-6.46 0,-3.2 0.8,-5.55 2.42,-6.97 1.62,-1.43 4.12,-2.15 7.52,-2.15l37.33 0 0 8.87z"/>
  <polygon class="fil1" points="1012.11,487.29 950.85,487.29 924.51,446.99 898.21,487.29 836.97,487.29 893.63,414.24 841.52,344.91 901.42,344.91 924.51,381.45 947.63,344.91 1007.53,344.91 955.41,414.24 "/>
  <path class="fil1" d="M614.29 410.99l-22.57 63.95c-3.23,9.3 -11.48,13.94 -24.72,13.94 -13.25,0 -21.49,-4.64 -24.72,-13.94l-22.55 -63.67c-0.9,-2.52 -1.88,-3.74 -2.96,-3.74 -1.26,0 -1.89,1.05 -1.89,3.19l2.69 76.57 -52.64 0 0 -116.85c0,-8.77 3.93,-15.69 11.81,-20.68 6.99,-4.31 15.67,-6.45 26.06,-6.45 19.16,0 31.43,7.35 36.8,22.01l22.29 61.79c1.44,4.1 3.15,6.19 5.11,6.19 1.97,0 3.67,-2.09 5.09,-6.19l22.32 -61.79c5.36,-14.66 17.62,-22.01 36.79,-22.01 10.38,0 19.07,2.14 26.06,6.45 7.87,4.99 11.81,11.91 11.81,20.68l0 116.85 -52.64 0 2.68 -76.84c0,-2.15 -0.63,-3.21 -1.88,-3.21 -1.08,0 -2.06,1.23 -2.94,3.75z"/>
  <path class="fil1" d="M1844.99 325.87l-24.08 0 0 -100.13c0,-5.6 -2.97,-8.39 -8.94,-8.39l-40.13 0c-6.68,0 -11.31,2.08 -13.85,6.2 -1.96,3.16 -2.93,8.39 -2.93,15.69 0,8.26 0.86,13.8 2.56,16.59 2.54,4.27 6.57,6.38 12.05,6.38l25.16 0c7.3,0 10.95,2.64 10.95,7.86l0 2.89c0,3.9 -1.82,7.61 -5.48,11.16l-42.68 41.75 -31.01 0 48.16 -43.79 0 -0.69 -16.61 0c-18.61,0 -27.91,-14.31 -27.91,-42.87 0,-13.26 2.14,-22.94 6.39,-29.01 5.1,-7.55 13.99,-11.32 26.64,-11.32l62.55 0c12.77,0 19.16,6.68 19.16,20.06l0 107.62zm-213.07 -101.38l0 0 -21.04 51.96 49.1 0 -20.82 -52c-1.46,-3.5 -2.64,-5.28 -3.62,-5.28 -0.97,0 -2.2,1.78 -3.62,5.32zm-65.55 101.38l0 0 48.17 -114.73c2.3,-5.34 4.95,-9.07 7.92,-11.21 3,-2.15 7.33,-3.19 13.05,-3.19 5.48,0 9.8,1.1 12.96,3.28 3.15,2.17 5.83,5.91 8,11.12l48.18 114.73 -25.51 0 -12.97 -32.27 -61.67 0 -12.76 32.27 -25.37 0zm-113.13 -54.89l0 0 0 26.26c0,3.9 0.58,6.46 1.74,7.67 1.13,1.22 3.68,1.81 7.57,1.81l37.93 0c6.46,0 10.96,-1.34 13.53,-3.99 2.53,-2.69 3.79,-7.2 3.79,-13.52 0,-6.19 -1.01,-10.64 -3.08,-13.3 -2.44,-3.28 -6.63,-4.93 -12.59,-4.93l-48.89 0zm0 -19.16l0 0 46.71 0c6.2,0 10.38,-1.33 12.57,-4.02 2.2,-2.66 3.29,-7.16 3.29,-13.48 0,-6.09 -1.19,-10.43 -3.55,-13.06 -2.37,-2.61 -6.55,-3.91 -12.5,-3.91l-39.41 0c-4.74,0 -7.11,2.37 -7.11,7.1l0 27.37zm-6.57 -53.63l0 0 62.76 0c11.31,0 19.45,3.04 24.45,9.12 4.48,5.59 6.73,14.22 6.73,25.91 0,6.81 -1.27,12.72 -3.82,17.69 -3.28,5.95 -8.03,9.19 -14.23,9.67l0 0.72c13.38,1.1 20.06,10.95 20.06,29.56 0,12.41 -2.43,21.34 -7.3,26.8 -3.16,3.54 -6.99,5.9 -11.49,7.13 -2.78,0.73 -6.74,1.08 -11.86,1.08l-61.1 0c-4.74,0 -7.79,-0.1 -9.13,-0.35 -4,-0.73 -7.17,-2.87 -9.46,-6.39 -2.09,-3.15 -3.12,-6.93 -3.12,-11.32l0 -91.2c0,-12.28 5.83,-18.42 17.51,-18.42zm-163.84 63.84l0 0c0,16.43 2.74,28.17 8.2,35.21 3.53,4.5 8.45,7.6 14.77,9.29 4.13,1.1 10.04,1.67 17.7,1.67 15.92,0 26.88,-3.84 32.84,-11.5 5.24,-6.58 7.83,-18.13 7.83,-34.67 0,-16.65 -2.55,-28.26 -7.65,-34.81 -5.96,-7.56 -16.96,-11.33 -33.02,-11.33 -7.66,0 -13.43,0.48 -17.32,1.46 -9.48,2.31 -16,8.08 -19.53,17.34 -2.56,6.43 -3.82,15.57 -3.82,27.34zm40.86 -65.29l0 0c11.19,0 19.75,0.54 25.73,1.63 10.69,1.95 19.07,5.92 25.17,11.87 9.59,9.37 14.4,26.62 14.4,51.79 0,25.05 -4.81,42.33 -14.4,51.82 -5.98,5.82 -14.37,9.79 -25.17,11.85 -5.84,1.09 -14.42,1.63 -25.73,1.63 -11.31,0 -19.93,-0.54 -25.91,-1.63 -21.03,-3.9 -33.68,-16.47 -37.94,-37.76 -1.22,-6.21 -1.83,-14.84 -1.83,-25.91 0,-11.54 0.73,-20.72 2.2,-27.54 4.25,-20.18 16.77,-32.23 37.57,-36.12 5.98,-1.09 14.6,-1.63 25.91,-1.63zm-207.08 129.13l0 0 0 -19.15 58.73 0c7.3,0 12.36,-0.78 15.15,-2.36 4.13,-2.31 6.2,-7.49 6.2,-15.5 0,-6.96 -1.42,-11.64 -4.28,-14.14 -2.86,-2.5 -7.83,-3.74 -14.89,-3.74l-58.36 0 0 -19.16 55.28 0c7.77,0 13.04,-1.07 15.77,-3.19 2.74,-2.13 4.11,-6.84 4.11,-14.14 0,-6.32 -1.06,-10.75 -3.19,-13.32 -2.15,-2.55 -6.18,-3.82 -12.14,-3.82l-61.66 0 0 -19.16 67.13 0c6.1,0 10.59,0.31 13.5,0.91 14.1,2.94 21.17,14.1 21.17,33.57 0,15.93 -6.02,25.29 -18.07,28.09l0 0.74c7.79,0.36 13.38,3.52 16.79,9.48 2.43,4.25 3.66,11.2 3.66,20.79 0,14.59 -3.85,24.25 -11.51,29 -5.46,3.4 -14.59,5.1 -27.36,5.1l-66.03 0zm-94.36 0l0 0 -26.02 0 15.43 -28.25 -54.52 -99.43 26.59 0 40.32 77.32 38.9 -77.32 26.25 0 -66.95 127.68zm-181.17 -64.37l0 0 45.79 0c7.9,0 13.25,-1.76 16.05,-5.3 2.55,-3.16 3.83,-8.81 3.83,-16.96 0,-7.9 -1.35,-13.53 -4.02,-16.88 -2.67,-3.34 -7.85,-5.01 -15.51,-5.01l-38.85 0c-4.87,0 -7.29,2.54 -7.29,7.66l0 36.49zm0 64.37l0 0 -24.08 0 0 -108.52c0,-12.77 6.26,-19.16 18.79,-19.16l60.74 0c13.26,0 22.56,3.59 27.91,10.77 4.76,6.21 7.12,16.35 7.12,30.46 0,27.47 -10.22,41.23 -30.64,41.23l-59.84 0 0 45.22zm-133.38 0l0 0 -24.08 0 0 -109.26c0,-12.28 5.65,-18.42 16.97,-18.42l85.36 0 0 19.16 -68.77 0c-4.13,0 -6.75,0.45 -7.84,1.35 -1.09,0.92 -1.64,3.26 -1.64,7.04l0 100.13z"/>
  <path class="fil1" d="M746.98 448.6c-4.67,-0.87 -7.97,-2.9 -9.94,-6.07 -1.98,-3.1 -2.79,-7.01 -2.42,-11.67l77.62 0c5.92,0 10.57,-1.35 13.97,-4.03 5.73,-4.64 8.6,-13.33 8.6,-26.04 0,-23.63 -5.1,-39.57 -15.31,-47.81 -5.2,-4.13 -12.81,-6.9 -22.83,-8.32 -7.17,-0.9 -19.16,-1.35 -36,-1.35 -17.36,0 -30.25,0.62 -38.68,1.88 -13.06,1.97 -22.52,5.91 -28.33,11.8 -5.84,5.91 -9.45,14.44 -10.88,25.53 -0.54,5.02 -0.81,16.74 -0.81,35.17 0,26.16 2.46,43.27 7.39,51.34 4.92,8.05 12.04,13.32 21.34,15.84 5.75,1.61 15.41,2.42 29.02,2.42l89.99 0 0 -38.15 -69.04 0c-6.8,0 -11.37,-0.18 -13.69,-0.54zm-9 -65.28l0 0c2.76,-2.69 9.63,-4.03 20.54,-4.03 2.33,0 4.84,0.09 7.53,0.28 10.74,0.71 16.1,4.22 16.1,10.46 0,5.03 -2.85,7.55 -8.58,7.55l-38.95 0c-0.54,-6.83 0.57,-11.58 3.36,-14.26z"/>
  <polygon class="fil2" points="264.47,342.87 246.6,362.3 246.6,384.83 281.21,400.75 281.38,415.19 262.35,415.19 253.59,425.11 286.26,443.76 318.9,425.11 310.16,415.19 290.87,415.19 290.87,400.61 325.9,384.83 325.9,362.3 308.01,342.87 "/>
  <path class="fil3" d="M482.27 193.99l13.84 -28.55c0.49,-1.01 0.56,-2.19 0.22,-3.26l-19.45 -58c-0.48,-1.42 -1.64,-2.49 -3.1,-2.86l-37.78 -9.33c-0.88,-0.22 -1.81,-0.16 -2.66,0.19l-51.22 20.47c-0.9,0.36 -1.64,1.01 -2.14,1.84l-10.4 17.82 -20.46 -10.45c-1.02,-0.5 -2.17,-0.96 -3.28,-0.96l-118.51 0c-1.11,0 -2.15,0.21 -3.37,0.93l-19.15 9.47 -10.19 -16.93c-0.49,-0.83 -1.24,-1.48 -2.13,-1.84l-51.01 -20.32c-0.85,-0.35 -1.77,-0.41 -2.66,-0.19l-37.78 9.09c-1.47,0.36 -2.64,1.44 -3.11,2.86l-19.45 58.35c-0.35,1.07 -0.28,2.25 0.22,3.27l12.49 25.9 -47.29 142.5c-0.39,1.17 -0.47,2.42 -0.25,3.62l26.76 141.99c0.27,1.35 0.91,2.6 1.82,3.57l82.62 88.46c1.07,1.12 2.46,1.89 3.96,2.16l91.33 17.12 32.03 25.63c1.29,1.04 2.88,1.6 4.52,1.6 1.65,0 3.27,-0.56 4.52,-1.58l32.05 -25.65 91.32 -17.12c1.51,-0.27 2.87,-1.01 3.96,-2.16l56.46 -60.45 -12.78 0 -50.03 53.56 -92.93 17.42 -32.56 26.03 -32.54 -26.03 -92.95 -17.42 -81.73 -87.51 -26.55 -140.81 47.28 -141.8 127.84 -64.54 117.29 0 127.86 64.55 41.92 125.77c3.69,0.55 7.24,1.33 10.6,2.37l-43.45 -128.78zm-122.56 85.64l7.38 -14.38 -8.15 -12.83 -20.22 3.88 -1.67 3.07 15.07 -2.91 4.55 7.14 -4.72 9.18 -14.81 0.32c0,0 -5.77,-3.95 -5.88,-4.09l-18.66 -21.77c-0.72,-0.84 -1.74,-1.38 -2.85,-1.5l-22.89 -2.5c-0.08,0 -0.16,-0.01 -0.24,-0.02 -0.45,-0.04 -0.9,-0.03 -1.33,0.07l-22.54 2.45c-1.1,0.12 -2.12,0.66 -2.85,1.5l-18.66 21.77c-0.08,0.1 -5.35,4.09 -5.35,4.09l-14.82 -0.32 -4.71 -9.18 4.54 -7.14 14.78 2.84 -1.65 -3 -20.22 -3.88 -8.15 12.83 7.38 14.38 18.27 0.39 8.03 -5.82 -15.3 53.2c-0.12,0.41 -0.18,0.82 -0.16,1.25l0.77 92.51c0,1.41 0.69,2.71 1.83,3.52l9.47 6.78 3.55 17.74c0.28,1.33 1.16,2.46 2.4,3.07l42.45 20.47c0.61,0.29 1.26,0.42 1.91,0.42 0.64,0 1.28,-0.13 1.88,-0.42l42.47 -20.47c1.23,-0.61 2.13,-1.74 2.39,-3.07l3.55 -17.74 9.49 -6.78c1.12,-0.81 1.8,-2.11 1.8,-3.52l0.8 -92.51c0,-0.43 -0.06,-0.84 -0.17,-1.25l-15.38 -53.43 8.36 6.05 18.26 -0.39zm-33.81 105.2l-35.03 15.78 0 14.58 19.29 0 8.74 9.92 -32.64 18.65 -32.67 -18.65 8.76 -9.92 19.03 0 -0.17 -14.44 -34.61 -15.92 0 -22.53 17.87 -19.43 43.54 0 17.89 19.43 0 22.53zm92.69 -157.06l-45.82 -46.43 -45.28 -13.75 -41.5 19.52 -41.86 -19.51 -45.28 13.74 -45.83 46.43 49.55 -40.25 41.03 -3.21 42.39 19.76 42.03 -19.75 41.02 3.2 49.55 40.25zm-309.76 -24.24c0.25,-1.04 0.87,-1.96 1.74,-2.57l23.79 -16.65 -28.68 14.92 -40.17 137.44 28.39 138 71.16 75.78 91.03 12.6c0.95,0.14 1.81,0.56 2.48,1.24 0,0 25.33,25.15 26.42,26.01 1.09,0.87 2.1,0.87 3.11,-0.13 0.74,-0.76 26.31,-25.98 26.31,-25.98 0.69,-0.67 1.56,-1.09 2.5,-1.24l91.9 -12.37 36.52 -39.4 -4.3 0 0 -63.15 -59.29 23.11 -92.14 86.74c-0.85,0.79 -1.94,1.15 -3.01,1.15 -1.08,0 -2.19,-0.21 -3.02,-0.99l-92.55 -86.9 -75.45 -29.31c-1.32,-0.51 -2.32,-1.64 -2.66,-3.01l-30.18 -121.66c-0.18,-0.68 -0.32,-1.33 -0.15,-2.01l26.25 -111.62zm321.21 -25.24l32.86 23.81c0.89,0.61 1.49,1.53 1.74,2.57l25.82 109.85c0.16,0.69 1.07,5.77 1.07,5.77 4.26,-0.66 6.64,-0.88 11.25,-0.88l-35.15 -120.46 -37.59 -20.66zm-302.13 -9.33l-14.63 8.03 -7.39 -16.64 11.91 -38.2 16.64 0 2.94 20.55 -9.47 26.26zm333.91 7.97l-14.77 -8.12 -9.34 -26.43 3.1 -20.19 16.5 0 11.76 38.38 -7.25 16.36z"/>
 </g>
</svg>
